<svg width="24" height="25" viewBox="0 0 24 25" fill="none" xmlns="http://www.w3.org/2000/svg">
<g clip-path="url(#clip0_1003_17)">
<path fill-rule="evenodd" clip-rule="evenodd" d="M2.25 22.0123C2.25 22.2193 2.418 22.3873 2.625 22.3873H6V20.5123C6 20.2139 6.11853 19.9278 6.3295 19.7168C6.54048 19.5058 6.82663 19.3873 7.125 19.3873H10.875C11.1734 19.3873 11.4595 19.5058 11.6705 19.7168C11.8815 19.9278 12 20.2139 12 20.5123V22.3873H15.375C15.4745 22.3873 15.5698 22.3478 15.6402 22.2775C15.7105 22.2071 15.75 22.1118 15.75 22.0123V3.2623C15.75 3.16284 15.7105 3.06746 15.6402 2.99713C15.5698 2.92681 15.4745 2.8873 15.375 2.8873H2.625C2.52554 2.8873 2.43016 2.92681 2.35984 2.99713C2.28951 3.06746 2.25 3.16284 2.25 3.2623V22.0123ZM2.625 24.6373C1.92881 24.6373 1.26113 24.3607 0.768845 23.8685C0.276562 23.3762 0 22.7085 0 22.0123L0 3.2623C0 1.8133 1.176 0.637299 2.625 0.637299H15.375C16.824 0.637299 18 1.8133 18 3.2623V22.0123C18 22.1398 17.991 22.2643 17.973 22.3873H21.375C21.4745 22.3873 21.5698 22.3478 21.6402 22.2775C21.7105 22.2071 21.75 22.1118 21.75 22.0123V13.0648C21.7501 13.0031 21.7349 12.9424 21.7058 12.8879C21.6768 12.8335 21.6348 12.7871 21.5835 12.7528L20.001 11.6983C19.8763 11.6171 19.769 11.512 19.6852 11.3891C19.6013 11.2662 19.5428 11.1279 19.5128 10.9821C19.4828 10.8364 19.482 10.6862 19.5105 10.5401C19.539 10.3941 19.5961 10.2552 19.6787 10.1314C19.7612 10.0076 19.8674 9.90142 19.9913 9.81897C20.1151 9.73653 20.2541 9.67946 20.4001 9.65109C20.5462 9.62271 20.6964 9.62359 20.8421 9.65366C20.9878 9.68374 21.1261 9.74242 21.249 9.8263L22.8315 10.8808C23.562 11.3683 24 12.1873 24 13.0648V22.0123C24 22.7085 23.7234 23.3762 23.2312 23.8685C22.7389 24.3607 22.0712 24.6373 21.375 24.6373H16.125C16.0252 24.6375 15.9258 24.6243 15.8295 24.5983C15.681 24.6238 15.5295 24.6373 15.375 24.6373H10.875C10.5766 24.6373 10.2905 24.5188 10.0795 24.3078C9.86853 24.0968 9.75 23.8107 9.75 23.5123V21.6373H8.25V23.5123C8.25 23.8107 8.13147 24.0968 7.9205 24.3078C7.70952 24.5188 7.42337 24.6373 7.125 24.6373H2.625ZM4.5 6.2623C4.5 5.96393 4.61853 5.67778 4.8295 5.4668C5.04048 5.25582 5.32663 5.1373 5.625 5.1373H6.375C6.67337 5.1373 6.95952 5.25582 7.1705 5.4668C7.38147 5.67778 7.5 5.96393 7.5 6.2623C7.5 6.56067 7.38147 6.84682 7.1705 7.05779C6.95952 7.26877 6.67337 7.3873 6.375 7.3873H5.625C5.32663 7.3873 5.04048 7.26877 4.8295 7.05779C4.61853 6.84682 4.5 6.56067 4.5 6.2623V6.2623ZM5.625 9.6373C5.32663 9.6373 5.04048 9.75582 4.8295 9.9668C4.61853 10.1778 4.5 10.4639 4.5 10.7623C4.5 11.0607 4.61853 11.3468 4.8295 11.5578C5.04048 11.7688 5.32663 11.8873 5.625 11.8873H6.375C6.67337 11.8873 6.95952 11.7688 7.1705 11.5578C7.38147 11.3468 7.5 11.0607 7.5 10.7623C7.5 10.4639 7.38147 10.1778 7.1705 9.9668C6.95952 9.75582 6.67337 9.6373 6.375 9.6373H5.625ZM4.5 15.2623C4.5 14.9639 4.61853 14.6778 4.8295 14.4668C5.04048 14.2558 5.32663 14.1373 5.625 14.1373H6.375C6.67337 14.1373 6.95952 14.2558 7.1705 14.4668C7.38147 14.6778 7.5 14.9639 7.5 15.2623C7.5 15.5607 7.38147 15.8468 7.1705 16.0578C6.95952 16.2688 6.67337 16.3873 6.375 16.3873H5.625C5.32663 16.3873 5.04048 16.2688 4.8295 16.0578C4.61853 15.8468 4.5 15.5607 4.5 15.2623ZM11.625 14.1373C11.3266 14.1373 11.0405 14.2558 10.8295 14.4668C10.6185 14.6778 10.5 14.9639 10.5 15.2623C10.5 15.5607 10.6185 15.8468 10.8295 16.0578C11.0405 16.2688 11.3266 16.3873 11.625 16.3873H12.375C12.6734 16.3873 12.9595 16.2688 13.1705 16.0578C13.3815 15.8468 13.5 15.5607 13.5 15.2623C13.5 14.9639 13.3815 14.6778 13.1705 14.4668C12.9595 14.2558 12.6734 14.1373 12.375 14.1373H11.625ZM10.5 10.7623C10.5 10.4639 10.6185 10.1778 10.8295 9.9668C11.0405 9.75582 11.3266 9.6373 11.625 9.6373H12.375C12.6734 9.6373 12.9595 9.75582 13.1705 9.9668C13.3815 10.1778 13.5 10.4639 13.5 10.7623C13.5 11.0607 13.3815 11.3468 13.1705 11.5578C12.9595 11.7688 12.6734 11.8873 12.375 11.8873H11.625C11.3266 11.8873 11.0405 11.7688 10.8295 11.5578C10.6185 11.3468 10.5 11.0607 10.5 10.7623ZM11.625 5.1373C11.3266 5.1373 11.0405 5.25582 10.8295 5.4668C10.6185 5.67778 10.5 5.96393 10.5 6.2623C10.5 6.56067 10.6185 6.84682 10.8295 7.05779C11.0405 7.26877 11.3266 7.3873 11.625 7.3873H12.375C12.6734 7.3873 12.9595 7.26877 13.1705 7.05779C13.3815 6.84682 13.5 6.56067 13.5 6.2623C13.5 5.96393 13.3815 5.67778 13.1705 5.4668C12.9595 5.25582 12.6734 5.1373 12.375 5.1373H11.625Z" fill="#F1F1F1"/>
</g>
<defs>
<clipPath id="clip0_1003_17">
<rect width="24" height="24" fill="white" transform="translate(0 0.637299)"/>
</clipPath>
</defs>
</svg>
