<svg width="24" height="25" viewBox="0 0 24 25" fill="none" xmlns="http://www.w3.org/2000/svg">
<path fill-rule="evenodd" clip-rule="evenodd" d="M8.2499 5.8873C7.45425 5.8873 6.69118 6.20337 6.12858 6.76598C5.56597 7.32859 5.2499 8.09165 5.2499 8.8873C5.2499 9.68295 5.56597 10.446 6.12858 11.0086C6.69118 11.5712 7.45425 11.8873 8.2499 11.8873C9.04555 11.8873 9.80861 11.5712 10.3712 11.0086C10.9338 10.446 11.2499 9.68295 11.2499 8.8873C11.2499 8.09165 10.9338 7.32859 10.3712 6.76598C9.80861 6.20337 9.04555 5.8873 8.2499 5.8873ZM2.9999 8.8873C2.99979 8.01711 3.21599 7.16054 3.62904 6.39463C4.0421 5.62872 4.63905 4.97749 5.36622 4.49952C6.09339 4.02155 6.92797 3.73182 7.79489 3.65641C8.6618 3.58099 9.53387 3.72224 10.3327 4.06746C11.1314 4.41268 11.8319 4.95104 12.371 5.63411C12.9101 6.31719 13.271 7.12356 13.4211 7.98069C13.5713 8.83783 13.5061 9.71885 13.2313 10.5445C12.9565 11.3702 12.4808 12.1146 11.8469 12.7108C13.0422 13.2907 14.08 14.1503 14.8722 15.2167C15.6645 16.2832 16.1878 17.525 16.3979 18.8368C16.421 18.9828 16.4152 19.1319 16.3807 19.2756C16.3463 19.4193 16.2838 19.5548 16.197 19.6744C16.1101 19.7939 16.0006 19.8953 15.8746 19.9725C15.7486 20.0497 15.6086 20.1014 15.4626 20.1245C15.3167 20.1477 15.1676 20.1419 15.0239 20.1074C14.8802 20.0729 14.7447 20.0105 14.6251 19.9236C14.5055 19.8368 14.4042 19.7272 14.327 19.6012C14.2497 19.4752 14.198 19.3353 14.1749 19.1893C13.9479 17.7813 13.227 16.5002 12.1413 15.5755C11.0555 14.6508 9.67603 14.143 8.2499 14.143C6.82377 14.143 5.44424 14.6508 4.35853 15.5755C3.27282 16.5002 2.55188 17.7813 2.3249 19.1893C2.30165 19.3353 2.24989 19.4752 2.17255 19.6012C2.09522 19.7271 1.99384 19.8366 1.87419 19.9234C1.75454 20.0102 1.61897 20.0725 1.47522 20.1069C1.33147 20.1413 1.18236 20.147 1.0364 20.1238C0.890431 20.1006 0.750475 20.0488 0.624516 19.9715C0.498558 19.8941 0.389065 19.7927 0.302288 19.6731C0.215512 19.5534 0.153152 19.4179 0.118768 19.2741C0.084385 19.1304 0.0786516 18.9813 0.101896 18.8353C0.312398 17.524 0.835958 16.2828 1.62819 15.2169C2.42043 14.1511 3.45798 13.2919 4.6529 12.7123C4.13019 12.2219 3.71377 11.6293 3.42943 10.9714C3.14509 10.3134 2.99889 9.60406 2.9999 8.8873ZM16.4999 6.6373C16.2015 6.6373 15.9154 6.75582 15.7044 6.9668C15.4934 7.17778 15.3749 7.46393 15.3749 7.7623C15.3749 8.06067 15.4934 8.34682 15.7044 8.55779C15.9154 8.76877 16.2015 8.8873 16.4999 8.8873C17.0074 8.88733 17.5 9.05894 17.8977 9.37427C18.2954 9.6896 18.5748 10.1301 18.6905 10.6243C18.8062 11.1184 18.7515 11.6372 18.5352 12.0963C18.3188 12.5554 17.9536 12.9279 17.4989 13.1533C17.3114 13.2466 17.1536 13.3903 17.0433 13.5684C16.9331 13.7465 16.8748 13.9518 16.8749 14.1613V14.6893C16.8746 14.942 16.9593 15.1874 17.1155 15.3861C17.2717 15.5847 17.4903 15.725 17.7359 15.7843C19.5359 16.2178 20.9789 17.5843 21.5189 19.3423C21.5617 19.4841 21.6322 19.6161 21.7261 19.7306C21.8201 19.8452 21.9358 19.94 22.0665 20.0097C22.1972 20.0794 22.3404 20.1227 22.4879 20.1369C22.6354 20.1511 22.7842 20.136 22.9259 20.0926C23.0675 20.0491 23.1992 19.9781 23.3133 19.8836C23.4274 19.7891 23.5217 19.673 23.5909 19.542C23.66 19.411 23.7026 19.2676 23.7161 19.12C23.7297 18.9725 23.714 18.8237 23.6699 18.6823C23.3697 17.7082 22.8745 16.8053 22.2143 16.0286C21.5542 15.2519 20.7429 14.6176 19.8299 14.1643C20.4163 13.5192 20.8028 12.7177 20.9422 11.8571C21.0816 10.9965 20.9681 10.1139 20.6154 9.31668C20.2627 8.51941 19.686 7.84177 18.9554 7.3661C18.2248 6.89044 17.3717 6.63725 16.4999 6.6373Z" fill="#F1F1F1"/>
</svg>
