<svg width="24" height="25" viewBox="0 0 24 25" fill="none" xmlns="http://www.w3.org/2000/svg">
<g clip-path="url(#clip0_1003_4)">
<path d="M16 22.1373V18.2673C16.0375 17.7905 15.9731 17.3111 15.811 16.8611C15.6489 16.4111 15.3929 16.0007 15.06 15.6573C18.2 15.3073 21.5 14.1173 21.5 8.6573C21.4997 7.26112 20.9627 5.9185 20 4.9073C20.4559 3.6858 20.4236 2.33565 19.91 1.1373C19.91 1.1373 18.73 0.787297 16 2.6173C13.708 1.99612 11.292 1.99612 9 2.6173C6.27 0.787297 5.09 1.1373 5.09 1.1373C4.57638 2.33565 4.54414 3.6858 5 4.9073C4.03013 5.926 3.49252 7.28076 3.5 8.6873C3.5 14.1073 6.8 15.2973 9.94 15.6873C9.611 16.0273 9.35726 16.4327 9.19531 16.8772C9.03335 17.3217 8.96681 17.7954 9 18.2673V22.1373M9 19.1373C4 20.6373 4 16.6373 2 16.1373L9 19.1373Z" stroke="#8257E6" stroke-width="2" stroke-linecap="round" stroke-linejoin="round"/>
</g>
<defs>
<clipPath id="clip0_1003_4">
<rect width="24" height="24" fill="white" transform="translate(0 0.137299)"/>
</clipPath>
</defs>
</svg>
