<svg width="24" height="25" viewBox="0 0 24 25" fill="none" xmlns="http://www.w3.org/2000/svg">
<path fill-rule="evenodd" clip-rule="evenodd" d="M17.304 5.8333C18.0007 6.52977 18.5533 7.35665 18.9303 8.26672C19.3073 9.17679 19.5014 10.1522 19.5014 11.1373C19.5014 12.1224 19.3073 13.0978 18.9303 14.0079C18.5533 14.918 18.0007 15.7448 17.304 16.4413L12 21.7423L6.69601 16.4398C5.99947 15.7433 5.44695 14.9164 5.06999 14.0063C4.69303 13.0962 4.49902 12.1208 4.49902 11.1358C4.49902 10.1508 4.69303 9.17536 5.06999 8.2653C5.44695 7.35523 5.99947 6.52833 6.696 5.8318C7.39254 5.13527 8.21944 4.58275 9.1295 4.20579C10.0396 3.82883 11.015 3.63481 12 3.63481C12.9851 3.63481 13.9604 3.82883 14.8705 4.20579C15.7806 4.58275 16.6075 5.13527 17.304 5.8318V5.8333ZM18.894 18.0313C20.2577 16.6678 21.1863 14.9305 21.5626 13.0392C21.9389 11.1478 21.7458 9.18737 21.0079 7.40574C20.27 5.62412 19.0203 4.10133 17.4169 3.02995C15.8135 1.95857 13.9284 1.38672 12 1.38672C10.0716 1.38672 8.18651 1.95857 6.58311 3.02995C4.97971 4.10133 3.73003 5.62412 2.9921 7.40574C2.25417 9.18737 2.06114 11.1478 2.43741 13.0392C2.81368 14.9305 3.74236 16.6678 5.106 18.0313L10.4085 23.3353C10.6175 23.5444 10.8656 23.7102 11.1386 23.8234C11.4117 23.9366 11.7044 23.9948 12 23.9948C12.2956 23.9948 12.5883 23.9366 12.8614 23.8234C13.1345 23.7102 13.3826 23.5444 13.5915 23.3353L18.894 18.0313ZM12 14.1373C12.7957 14.1373 13.5587 13.8212 14.1213 13.2586C14.6839 12.696 15 11.933 15 11.1373C15 10.3417 14.6839 9.57859 14.1213 9.01598C13.5587 8.45337 12.7957 8.1373 12 8.1373C11.2044 8.1373 10.4413 8.45337 9.87868 9.01598C9.31608 9.57859 9.00001 10.3417 9.00001 11.1373C9.00001 11.933 9.31608 12.696 9.87868 13.2586C10.4413 13.8212 11.2044 14.1373 12 14.1373Z" fill="#F1F1F1"/>
</svg>
