<svg width="24" height="25" viewBox="0 0 24 25" fill="none" xmlns="http://www.w3.org/2000/svg">
<g clip-path="url(#clip0_1003_11)">
<path fill-rule="evenodd" clip-rule="evenodd" d="M3 4.3873C3 3.39274 3.39509 2.43891 4.09835 1.73565C4.80161 1.03239 5.75544 0.637299 6.75 0.637299L19.875 0.637299C20.1734 0.637299 20.4595 0.755825 20.6705 0.966803C20.8815 1.17778 21 1.46393 21 1.7623V20.5123C21 20.8107 20.8815 21.0968 20.6705 21.3078C20.4595 21.5188 20.1734 21.6373 19.875 21.6373H16.125C15.8266 21.6373 15.5405 21.5188 15.3295 21.3078C15.1185 21.0968 15 20.8107 15 20.5123C15 20.2139 15.1185 19.9278 15.3295 19.7168C15.5405 19.5058 15.8266 19.3873 16.125 19.3873H18.75V16.3873H6.75C6.45463 16.3873 6.16584 16.4746 5.91985 16.6381C5.67386 16.8016 5.48162 17.0341 5.36724 17.3065C5.25286 17.5788 5.22143 17.8788 5.2769 18.1689C5.33236 18.4591 5.47224 18.7264 5.679 18.9373C5.88786 19.1505 6.00346 19.438 6.00036 19.7365C5.99727 20.0349 5.87574 20.3199 5.6625 20.5288C5.44927 20.7377 5.1618 20.8533 4.86334 20.8502C4.56487 20.8471 4.27986 20.7255 4.071 20.5123C3.38357 19.8116 2.99894 18.8689 3 17.8873V4.3873ZM18.75 2.8873V14.1373H6.75C6.216 14.1373 5.709 14.2483 5.25 14.4493V4.3873C5.25 3.98947 5.40804 3.60794 5.68934 3.32664C5.97065 3.04533 6.35218 2.8873 6.75 2.8873H18.75ZM7.5 19.0123V23.8873C7.5 23.9569 7.5194 24.0252 7.55601 24.0844C7.59262 24.1437 7.64501 24.1916 7.7073 24.2227C7.76959 24.2539 7.83932 24.267 7.90868 24.2608C7.97804 24.2545 8.04429 24.2291 8.1 24.1873L10.275 22.5568C10.3399 22.5081 10.4189 22.4818 10.5 22.4818C10.5811 22.4818 10.6601 22.5081 10.725 22.5568L12.9 24.1873C12.9557 24.2291 13.022 24.2545 13.0913 24.2608C13.1607 24.267 13.2304 24.2539 13.2927 24.2227C13.355 24.1916 13.4074 24.1437 13.444 24.0844C13.4806 24.0252 13.5 23.9569 13.5 23.8873V19.0123C13.5 18.9128 13.4605 18.8175 13.3902 18.7471C13.3198 18.6768 13.2245 18.6373 13.125 18.6373H7.875C7.77555 18.6373 7.68016 18.6768 7.60984 18.7471C7.53951 18.8175 7.5 18.9128 7.5 19.0123Z" fill="#F1F1F1"/>
</g>
<defs>
<clipPath id="clip0_1003_11">
<rect width="24" height="24" fill="white" transform="translate(0 0.637299)"/>
</clipPath>
</defs>
</svg>
